<svg xmlns="http://www.w3.org/2000/svg" fill="none" viewBox="0 0 89 36" height="36" width="89">
<path fill="#A6CE39" d="M80.9445 8.50027C80.9445 8.43963 80.9445 8.33047 80.9445 8.26579C80.9205 7.55424 80.9445 7.05293 81.1447 6.93164C80.8845 6.93164 80.416 6.93164 79.8275 6.93164C77.9738 7.05293 74.1582 7.90597 74.1582 12.9555V21.7124C74.3744 14.1643 77.6054 10.453 80.9405 8.50027"></path>
<path fill="#F26522" d="M74.1247 22.5527L74.2688 34.5641C74.2763 34.776 74.238 34.9871 74.1567 35.1827C74.8078 35.1964 75.4591 35.1681 76.1065 35.0978C78.6449 34.8188 80.8269 32.7327 80.879 30.6183C80.9391 28.1319 80.899 20.7941 80.899 20.7941C80.899 20.7941 81.0231 16.1933 84.8147 14.4912C85.1029 14.3619 85.4633 14.2446 85.7796 14.087C89.491 12.4941 88.1337 6.99576 88.7223 6.57126C88.7223 6.57126 74.1167 5.58481 74.1167 22.5406"></path>
<path fill="#A6CE39" d="M29.2277 7.10332C29.1917 4.60483 29.1917 2.11846 29.1917 1.30989C29.1917 0.501316 29.2718 0.210229 29.4599 0H29.1917H29.2678H29.0836H28.463C26.8135 0.060643 23.086 0.70346 22.5335 4.8191C22.4214 5.62767 22.4814 7.29334 22.4855 8.7609C22.4855 10.9683 22.5295 12.9857 22.5295 12.9857C22.5295 10.8672 23.7666 7.60464 29.2277 7.10332Z"></path>
<path fill="#F26522" d="M29.2923 12.252C29.2923 12.1874 29.2923 12.1267 29.2923 12.062C29.4724 9.86675 29.9929 7.34804 32.7595 7.10547H29.2282C29.2282 7.10547 22.8463 7.22675 22.53 12.7938L22.558 21.9792V31.8276C22.558 32.8343 22.558 33.6388 22.558 34.0391C22.558 34.8476 22.6181 35.1387 22.4419 35.3449H23.5469C25.3806 35.26 29.04 34.2655 29.3043 30.5299V14.892L29.2843 13.1536C29.2843 13.1536 29.2843 12.3046 29.2843 12.252"></path>
<path fill="#72BF44" d="M34.598 9.38815C34.598 9.38815 34.7862 8.17529 34.7942 8.13486C34.8268 7.76361 34.9477 7.4058 35.1465 7.0918H32.9845C28.7886 7.12414 29.2891 13.1197 29.2891 13.1197C29.2651 8.43403 33.1407 9.0162 34.598 9.40432"></path>
<path fill="#A6CE39" d="M29.3615 12.0755C29.3375 12.2615 29.3135 12.4798 29.2935 12.6658V13.4946H30.2503C33.5614 13.2116 34.2981 11.1133 34.6024 9.38702C33.1891 9.00699 29.7979 8.49354 29.3615 12.0755Z"></path>
<path fill="#A6CE39" d="M11.1205 29.1261H11.4128H11.1845C14.6758 28.8472 16.6576 26.9551 17.3983 25.1561C18.139 23.357 16.9059 20.4259 16.8899 20.3976C15.5129 19.4308 14.0362 18.6175 12.4858 17.9719L12.2455 17.8627C9.28677 16.5124 7.74534 15.7483 7.74534 14.5112V14.4101C7.74534 13.3145 8.74226 12.5302 10.1476 12.3887C6.96861 12.6595 5.62736 16.3871 5.86759 18.5379C5.97665 19.9191 6.36067 21.264 6.99664 22.4918C7.66126 22.8274 8.10567 23.0295 8.81033 23.3327L8.94245 23.3934C12.0493 24.7396 13.5387 25.4471 13.5387 26.8419V26.8662C13.5387 28.079 12.5979 28.9725 11.1005 29.114"></path>
<path fill="#72BF44" d="M11.1719 29.1247C12.0249 29.1787 12.8812 29.1284 13.7222 28.9751C15.0555 28.7447 16.4728 28.3404 17.6859 27.2003C19.4796 25.5185 19.4796 23.7154 19.4796 23.7154C19.3582 23.3644 19.2012 23.0271 19.0112 22.7087C18.4409 21.7848 17.6969 20.9826 16.8211 20.3477C16.8211 20.3477 18.1103 23.3353 17.3696 25.1304C16.629 26.9254 14.6631 28.8458 11.1719 29.1247Z"></path>
<path fill="#F26522" d="M19.4821 23.6841C19.4821 23.6841 19.1819 29.2471 11.1744 29.1218C9.47046 29.145 7.78764 28.7392 6.27784 27.9413C1.67356 25.5924 0.572533 30.5206 0 30.9654C1.20112 31.871 5.54116 34.9637 9.58492 35.0082C9.58492 35.0082 14.8658 35.4125 17.9207 32.0974C17.9207 32.0974 21.2558 28.572 19.4821 23.668"></path>
<path fill="#72BF44" d="M9.23217 12.5844C7.65391 13.0052 6.27137 13.9707 5.32453 15.3133C4.56782 16.3564 3.59892 18.6932 4.23952 20.8035C5.11498 21.4562 6.05404 22.017 7.04213 22.4773C7.04213 22.4773 6.17332 21.0987 5.90106 18.5395C5.68086 16.4858 6.80591 13.4213 9.23617 12.5723"></path>
<path fill="#F26522" d="M16.7132 7.98895C9.82274 4.80721 5.2665 7.9566 5.2665 7.9566C4.02224 8.69462 3.00271 9.76367 2.31924 11.047C1.63576 12.3304 1.31463 13.7787 1.39089 15.2338C1.37523 16.8678 1.95521 18.4507 3.02041 19.6809C3.14204 19.8383 3.27592 19.9857 3.42078 20.1216C3.5449 20.2752 4.25356 20.8574 4.25356 20.8574C3.60896 18.7349 4.57385 16.4102 5.33456 15.351C6.3782 13.8609 7.95987 12.8446 9.73866 12.521C11.4042 12.2461 13.8425 13.3094 14.1067 13.4023C18.1385 14.8699 19.3116 10.253 19.8361 9.90527C18.8499 9.20117 17.8112 8.57535 16.7292 8.03342"></path>
<mask height="18" width="39" y="4" x="35" maskUnits="userSpaceOnUse" style="mask-type:luminance" id="mask0_1_1832">
<path fill="white" d="M35.5371 21.4666H73.3163V4.01758H35.5371V21.4666Z"></path>
</mask>
<g mask="url(#mask0_1_1832)">
<path fill="#A5CE39" d="M58.1061 21.4666H57.7618C53.5018 21.22 52.1326 21.4666 48.6173 19.995C44.001 18.0504 35.9935 4.68869 35.5371 4.01758C35.5371 4.01758 56.3925 11.8324 69.3566 11.8324C70.6826 11.8449 72.0073 11.7435 73.3163 11.5292C73.2883 11.5616 64.468 21.4666 58.1021 21.4666"></path>
</g>
<path fill="#F26522" d="M55.7729 7.71273C56.4052 7.71271 57.0234 7.52371 57.5495 7.16956C58.0756 6.81541 58.4861 6.31194 58.7293 5.7226C58.9726 5.13325 59.0376 4.4844 58.9163 3.85779C58.7949 3.23119 58.4926 2.65486 58.0475 2.20143C57.6024 1.748 57.0343 1.43775 56.4148 1.30978C55.7953 1.1818 55.1522 1.24183 54.5665 1.48229C53.9808 1.72275 53.4786 2.13289 53.1233 2.66103C52.768 3.18918 52.5755 3.81169 52.5699 4.45014C52.5662 4.87725 52.6464 5.30087 52.8057 5.69654C52.965 6.09222 53.2003 6.45211 53.4981 6.75545C53.7959 7.05878 54.1502 7.29955 54.5407 7.46386C54.9311 7.62816 55.3499 7.71275 55.7729 7.71273Z"></path>
<path fill="#F26522" d="M62.424 19.0014C61.295 14.3562 60.1699 10.9157 60.0218 10.8833C59.8736 10.851 57.2192 10.3699 54.5927 9.75536C51.7901 9.10446 49.0235 8.3161 49.0155 8.33228C48.3669 9.82005 47.1818 12.7471 46.5612 14.4532C44.6114 19.8302 40.3755 35.1769 40.3755 35.1769L54.0682 21.2735L65.8872 35.088C65.8872 35.088 63.3689 22.8947 62.424 19.0014Z"></path>
</svg>
