<svg xmlns="http://www.w3.org/2000/svg" fill="none" viewBox="0 0 166 44" height="44" width="166">
<path fill="#231F20" d="M60.4176 1.11267C60.2782 1.04266 60.123 1.01006 59.9672 1.01807C59.1248 1.01807 57.9536 1.38295 56.4445 2.15326C54.6321 3.13614 52.9531 4.34728 51.4487 5.75706C49.376 7.66919 47.529 9.81239 45.9439 12.1448C42.6795 16.9048 39.7019 21.1948 37.011 25.0148C34.6726 28.405 32.0617 31.5989 29.2043 34.5649C31.3407 31.378 33.1861 28.0054 34.7181 24.4878C36.3263 20.8074 37.894 16.9333 39.4571 12.861C40.3249 10.6236 41.3051 8.43154 42.3942 6.29311C42.8484 5.53537 43.2357 4.73953 43.5519 3.91461C43.5466 3.8641 43.536 3.81429 43.5204 3.76596C43.5058 3.74686 43.4865 3.73184 43.4644 3.72237C43.4423 3.7129 43.4181 3.7093 43.3942 3.71191C42.8987 3.71191 42.0428 4.45519 40.8806 5.91923C39.7184 7.38327 38.1552 9.48698 36.2452 12.2259C32.8396 17.2411 29.7359 21.5957 26.9339 25.2896C24.132 28.9835 21.3826 31.8455 18.6858 33.8756C22.9773 28.9655 26.1937 24.4382 28.3349 20.2938C30.4762 16.1495 31.5273 12.5712 31.4882 9.55905C31.4432 6.66701 30.5873 4.36059 28.8845 2.63978C27.1817 0.918967 24.9338 0.0360379 22.1274 0C19.1915 0.0469595 16.31 0.799389 13.726 2.19381C10.6797 3.81811 7.96099 5.99311 5.70761 8.60855C3.95002 10.5815 2.51212 12.8174 1.44613 15.235C0.54808 17.2274 0.0579468 19.3794 0.00461124 21.5642C-0.0591583 23.407 0.540232 25.2116 1.69389 26.65C2.84288 28.0083 4.46702 28.8768 6.23466 29.0781C6.94041 33.6729 8.70627 37.2932 11.5322 39.939C13.6216 41.9073 16.2343 43.2312 19.0572 43.7522C21.88 44.2731 24.7931 43.9689 27.4475 42.8761C28.9656 42.2049 29.7539 41.6328 29.8125 41.1733C29.8125 41.0742 29.7179 41.0156 29.5647 41.0156C29.1277 41.1496 28.7121 41.3453 28.3304 41.5968C27.4996 42.0259 26.6329 42.3816 25.7402 42.6599C24.448 43.0459 23.1066 43.2417 21.758 43.241C18.12 43.2424 14.6229 41.8346 12.0007 39.3129C9.33392 36.7542 7.70771 33.3756 7.13561 29.1321C8.5051 29.0676 9.85687 28.7957 11.1448 28.3258C12.4592 27.8233 13.6907 27.1263 14.7982 26.2581C17.1819 24.4349 19.2149 22.1943 20.7985 19.6452C22.1859 17.2847 22.8752 15.0999 22.8932 13.0502C22.8932 11.6538 22.5553 10.5996 21.9202 9.86988C21.5771 9.50093 21.1572 9.21171 20.6902 9.02258C20.2232 8.83346 19.7205 8.74901 19.2173 8.77523C17.8659 8.77523 16.3658 9.36986 14.7126 10.5231C12.8404 11.9285 11.2276 13.6495 9.94656 15.6089C8.72903 17.3762 7.77458 19.3109 7.11309 21.3525C6.49469 23.3048 6.18167 25.3409 6.18511 27.3888V28.1141C5.43026 28.0682 4.69343 27.8646 4.02223 27.5162C3.35103 27.1677 2.7604 26.6824 2.28851 26.0914C1.33801 24.9112 0.842489 23.294 0.82447 21.2714C0.82447 19.3749 1.36053 17.3072 2.41464 15.0233C3.62529 12.513 5.23314 10.2146 7.17615 8.21665C9.22996 5.98313 11.6721 4.14087 14.3837 2.77942C16.5881 1.6227 19.0265 0.981916 21.5147 0.90545C24.0869 0.90545 26.0195 1.62621 27.3258 3.00466C28.6322 4.38311 29.3079 6.43727 29.3124 9.08155C29.335 11.5411 28.4791 14.762 26.7312 18.7667C24.9834 22.7714 22.2941 27.2041 18.6227 32.0827C17.3118 33.763 16.2892 35.0559 15.5324 35.9793C14.7756 36.9028 14.3972 37.4749 14.3792 37.7272C14.3792 37.8984 14.5324 37.9795 14.8297 37.9795C15.1931 38.0095 16.3943 37.1581 18.4335 35.4253C20.4831 33.6864 23.15 30.88 26.479 27.0014C30.5648 22.0867 34.3483 16.9283 37.8084 11.5547C36.0243 15.0858 34.4303 18.7097 33.0333 22.4111C31.9072 25.4923 30.9927 27.9654 30.299 29.8079C29.5186 31.7549 28.5894 33.639 27.5195 35.4433C26.7177 36.6956 26.2898 37.556 26.2492 38.038C26.2517 38.0644 26.2628 38.0892 26.2806 38.1087C26.2985 38.1282 26.3223 38.1413 26.3483 38.1461C26.3915 38.1773 26.4438 38.1931 26.497 38.1912C27.1817 38.1912 29.0331 36.3397 32.0738 32.5873C35.1145 28.8348 39.2814 23.1273 44.6421 15.4693C46.2706 12.9925 48.0503 10.6185 49.9712 8.3608C51.7085 6.33759 53.7715 4.61867 56.0751 3.27495C57.0994 2.69549 58.1899 2.24174 59.323 1.92353C60.1203 1.73433 60.5213 1.53611 60.5528 1.31538C60.5505 1.27257 60.5368 1.23116 60.513 1.19549C60.4892 1.15982 60.4563 1.13122 60.4176 1.11267ZM8.34288 20.2128C9.27969 17.8964 10.5967 15.7527 12.2395 13.8701C13.3431 12.5696 14.6443 11.4508 16.0955 10.5546C17.0424 9.94462 18.1259 9.57931 19.2488 9.49148C19.5804 9.47326 19.912 9.52479 20.2224 9.64273C20.5328 9.76067 20.815 9.94242 21.0507 10.1762C21.289 10.4379 21.4714 10.7455 21.5868 11.0801C21.7022 11.4147 21.7482 11.7693 21.722 12.1222C21.722 12.8565 21.4066 13.9241 20.7714 15.3026C19.9903 16.8882 19.0612 18.3964 17.9965 19.8073C16.6886 21.5758 15.2149 23.2155 13.5954 24.704C12.5591 25.6799 11.4097 26.5283 10.1718 27.2311C9.21702 27.7729 8.14301 28.0701 7.04552 28.0961C7.0487 27.8931 7.04118 27.6901 7.02299 27.4879C7.02299 27.2582 7.02299 27.0374 7.02299 26.7536C7.04978 24.51 7.49749 22.2913 8.34288 20.2128Z"></path>
<path fill="#231F20" d="M47.7183 19.0859H59.4621V21.9329H50.8716V26.2935H59.0161V29.145H50.8716V33.9471H59.9081V36.8076H47.7183V19.0859Z"></path>
<path fill="#231F20" d="M76.1435 22.8889C75.7726 22.4256 75.297 22.057 74.7559 21.8134C74.2147 21.5699 73.6234 21.4583 73.0307 21.4879C71.5757 21.4879 70.1297 22.1366 70.1297 23.7628C70.1297 27.3261 78.5355 25.2944 78.5355 31.601C78.5355 35.403 75.5308 37.2545 72.0577 37.2545C69.8549 37.2545 67.7016 36.5878 66.2466 34.858L68.6296 32.547C69.0123 33.1235 69.5329 33.5951 70.1441 33.9193C70.7554 34.2434 71.4379 34.4097 72.1298 34.403C73.5938 34.403 75.2335 33.6011 75.2335 31.9749C75.2335 28.0964 66.8322 30.3217 66.8322 23.979C66.8322 20.3302 70.0756 18.6274 73.3686 18.6274C75.2323 18.5628 77.0492 19.2195 78.4409 20.4608L76.1435 22.8889Z"></path>
<path fill="#231F20" d="M88.7358 21.9329H83.3076V19.0859H97.3264V21.9329H91.8936V36.7986H88.7403L88.7358 21.9329Z"></path>
<path fill="#231F20" d="M112.137 22.8876C111.767 22.4244 111.293 22.0558 110.752 21.8122C110.212 21.5686 109.621 21.457 109.029 21.4866C107.588 21.4866 106.137 22.1353 106.137 23.7615C106.137 27.3248 114.547 25.2931 114.547 31.5998C114.547 35.4018 111.538 37.2532 108.052 37.2532C105.849 37.2532 103.695 36.5865 102.254 34.8567L104.623 32.5457C105.008 33.1235 105.531 33.5959 106.144 33.9201C106.758 34.2442 107.443 34.4098 108.137 34.4017C109.579 34.4017 111.236 33.5998 111.236 31.9736C111.236 28.0951 102.822 30.3204 102.822 23.9777C102.822 20.3289 106.078 18.6261 109.349 18.6261C111.22 18.5566 113.046 19.2136 114.444 20.4595L112.137 22.8876Z"></path>
<path fill="#231F20" d="M121.627 19.0859H124.781V36.8076H121.627V19.0859Z"></path>
<path fill="#231F20" d="M131.349 19.0859H138.344C142.989 19.0859 147.354 21.9329 147.354 27.9423C147.354 33.9516 142.223 36.8076 137.975 36.8076H131.349V19.0859ZM136.853 33.9516C140.813 33.9516 144.061 32.2443 144.061 27.9467C144.061 23.6492 141.241 21.9374 137.394 21.9374H134.52V33.9516H136.853Z"></path>
<path fill="#231F20" d="M152.99 19.0859H164.743V21.9329H156.143V26.2935H164.288V29.145H156.143V33.9471H165.193V36.8076H152.99V19.0859Z"></path>
</svg>
